PathFileType  4	(X/Y/Z) C:\Users\antoi\Documents\MyRepositories\mobilecap\ResultsAnalysis
DataRate	CameraRate	NumFrames	NumMarkers	Units	OrigDataRate	OrigDataStartFrame	OrigNumFrames
100.0	100.0	5	51	mm	100.0	59	157
Frame#	Time	r_knee			r_shank_antsup			r_ankle			r_calc			r_5meta			r_toe			L_knee			L_shank_antsup			L_ankle			L_calc			L_5meta			L_toe			r_sh2			r_sh3			r_sh4			L_sh2			L_sh3			r_thigh1			r_thigh2			r_thigh3			r_thigh4			r_thigh5			L_thigh1			L_thigh2			L_thigh3			L_thigh4			r.ASIS			r.PSIS			L.ASIS			L.PSIS			C7			R_Shoulder			L_Shoulder			R_Sternum			L_Sternum			R_humerus			R_elbow_med			R_elbow_lat			R_forearm			R_wrist_radius			R_wrist_ulna			L_humerus			L_elbow_med			L_elbow_lat			L_forearm			L_wrist_radius			L_wrist_ulna			R_HJC			L_HJC			R_HJC_reg			L_HJC_reg			
		X1	Y1	Z1	X2	Y2	Z2	X3	Y3	Z3	X4	Y4	Z4	X5	Y5	Z5	X6	Y6	Z6	X7	Y7	Z7	X8	Y8	Z8	X9	Y9	Z9	X10	Y10	Z10	X11	Y11	Z11	X12	Y12	Z12	X13	Y13	Z13	X14	Y14	Z14	X15	Y15	Z15	X16	Y16	Z16	X17	Y17	Z17	X18	Y18	Z18	X19	Y19	Z19	X20	Y20	Z20	X21	Y21	Z21	X22	Y22	Z22	X23	Y23	Z23	X24	Y24	Z24	X25	Y25	Z25	X26	Y26	Z26	X27	Y27	Z27	X28	Y28	Z28	X29	Y29	Z29	X30	Y30	Z30	X31	Y31	Z31	X32	Y32	Z32	X33	Y33	Z33	X34	Y34	Z34	X35	Y35	Z35	X36	Y36	Z36	X37	Y37	Z37	X38	Y38	Z38	X39	Y39	Z39	X40	Y40	Z40	X41	Y41	Z41	X42	Y42	Z42	X43	Y43	Z43	X44	Y44	Z44	X45	Y45	Z45	X46	Y46	Z46	X47	Y47	Z47	X48	Y48	Z48	X49	Y49	Z49	X50	Y50	Z50	X51	Y51	Z51	

59	0.58000000	347.37139	486.44951	-40.88194	368.97679	429.62838	-50.12587	186.95287	108.23501	-98.26155	125.17038	81.28165	-148.47498	320.97759	31.85875	-59.26192	350.03303	52.19306	-117.16197	620.51849	496.63894	-357.19610	677.24383	431.79416	-368.26943	749.08017	113.96831	-327.25074	708.74133	54.73634	-274.55532	885.69428	105.47663	-349.97566	913.49514	146.21950	-298.61321	329.74685	323.00023	-68.59151	298.24330	445.87825	-17.03571	258.94778	337.65638	-23.21081	589.79864	410.25899	-377.76061	631.47540	294.86468	-373.74232	533.99566	746.82686	-88.00790	505.70197	636.49993	-84.16493	478.98688	622.52931	-24.63875	461.39872	761.90616	-0.22935	435.84175	649.48769	-1.20083	539.47505	807.09356	-369.16331	590.39633	674.91526	-381.84194	434.53554	766.45409	-362.23207	485.82387	638.35499	-355.69960	547.09160	935.87604	-61.21388	358.35692	979.73746	-138.07029	553.12372	928.15381	-300.06915	355.10547	972.94442	-235.53216	430.74762	1443.07322	-217.22936	503.03545	1411.95688	-56.40699	477.02931	1371.64355	-379.46741	534.92860	1339.09726	-198.68439	535.09361	1332.54947	-237.08029	534.06158	1184.64832	44.17334	477.05982	1088.18155	36.94332	519.84082	1097.90585	80.78470	609.09915	983.03300	84.25779	664.82870	896.56231	60.64434	638.24753	884.59488	97.27902	420.91835	1138.92194	-442.10446	362.76264	1050.70351	-385.76320	376.26022	1048.38356	-443.32687	419.06843	910.10867	-463.59252	447.14050	804.95918	-444.79306	408.39990	798.58901	-461.74010	470.85987	857.48522	-95.85836	460.83575	861.30021	-286.22359	476.31201	873.12624	-87.62955	471.06492	862.16058	-244.94058	
60	0.59000000	354.25697	485.53060	-40.82028	374.98747	428.34157	-49.96497	187.95362	109.35314	-98.16955	125.86318	83.34841	-148.27116	321.06837	31.89306	-59.06588	350.34824	51.69152	-116.98193	633.46202	495.18917	-357.36454	689.74548	430.03951	-368.57609	759.61177	111.91907	-328.18578	719.03347	53.17243	-275.51038	896.10614	102.81341	-351.12239	924.26405	143.38387	-299.77112	334.09703	322.28081	-68.38076	304.55179	445.59324	-17.03848	263.47050	338.15255	-23.17453	602.17154	408.95898	-378.23093	643.11444	293.45040	-374.31442	543.87155	743.90931	-87.30892	514.33693	633.90603	-83.47362	487.27749	620.26737	-24.18303	470.93092	759.75599	-0.01315	444.10623	647.67184	-1.06647	553.36528	806.10735	-368.71324	604.24626	673.98012	-380.84379	448.21905	765.43807	-363.43690	499.44626	637.26329	-356.55981	558.54551	933.73358	-60.41145	370.56234	977.98732	-138.30274	566.09912	926.18116	-299.55768	367.77447	971.30585	-235.75540	441.15000	1440.69011	-222.38132	513.97911	1411.83169	-61.35752	486.99628	1367.49508	-383.84603	545.82852	1337.41029	-202.87451	545.86688	1330.36079	-241.20668	544.44973	1185.23167	41.33371	486.84604	1088.99211	35.16951	529.91252	1098.86308	78.75995	618.86316	983.73909	82.61405	674.31922	897.02050	59.31484	647.78681	885.30808	96.10211	431.05754	1134.11372	-444.05615	373.43917	1046.27862	-386.69422	386.29706	1043.86512	-444.23708	429.12726	905.13393	-463.94241	457.36891	800.04801	-444.67904	418.46581	793.65049	-461.31714	482.51646	855.48662	-95.65144	473.54478	859.51469	-286.06289	487.95068	871.03143	-87.27971	483.44417	860.22750	-244.84434	
61	0.60000000	361.70092	484.42949	-40.81485	381.50831	426.83288	-49.86617	189.08303	110.64120	-98.00333	126.61263	85.59995	-147.98438	321.13523	31.93608	-58.87322	350.73430	51.24759	-116.78688	646.81142	493.80056	-357.28861	702.31325	427.98505	-368.67886	768.23838	109.32107	-328.93462	727.07989	51.80261	-276.11622	904.40802	98.43876	-352.31724	933.45225	138.66401	-301.10869	338.82616	321.43174	-68.20567	311.29261	445.30800	-17.00304	268.46858	338.58617	-23.14650	614.46736	407.84120	-378.50797	654.01506	291.96157	-374.66393	554.01525	740.91298	-86.69273	523.23727	631.18821	-82.83450	495.92752	617.90358	-23.78572	480.74969	757.53177	0.12564	452.72530	645.68894	-0.99305	567.50015	805.18969	-368.30098	618.42782	673.10842	-379.79395	462.20384	764.35150	-364.66486	513.53764	636.17348	-357.35789	570.15680	931.51612	-59.67396	382.96895	976.18242	-138.62737	579.31552	924.12935	-299.07147	380.68297	969.69385	-236.06825	451.61598	1438.15798	-227.74358	525.01473	1411.67158	-66.52268	496.97529	1363.11774	-388.36834	556.88850	1335.64013	-207.27036	556.71342	1328.06073	-245.53205	554.82028	1185.79641	38.37861	496.45084	1089.88349	33.36843	539.91489	1099.83459	76.64886	628.44319	984.37088	80.82827	683.49888	897.33230	57.81617	657.07514	885.90749	94.80045	441.30092	1129.08652	-446.08010	384.29945	1041.62574	-387.66710	396.50544	1039.11388	-445.13759	439.38561	899.93537	-464.37355	467.80656	794.91471	-444.69650	428.69953	788.56268	-460.97691	494.32406	853.42648	-95.52185	486.46686	857.69289	-285.97718	499.77013	868.77219	-87.06436	496.06911	858.26326	-244.87156	
62	0.61000000	369.70826	483.16740	-40.86676	388.56006	425.11733	-49.83307	190.35395	112.14696	-97.75161	127.46233	88.07016	-147.61038	321.17565	31.97604	-58.69325	351.16534	50.84837	-116.59051	660.43108	492.45819	-356.98117	714.89144	425.67135	-368.58453	775.33455	106.35778	-329.40665	733.23011	50.87367	-276.31949	910.94902	92.52802	-353.34507	941.36405	132.20906	-302.38150	343.95016	320.48617	-68.06905	318.44631	445.08505	-16.92322	273.95639	338.98111	-23.14470	626.68096	406.84116	-378.61964	664.35281	290.37884	-374.80626	564.50945	737.86204	-86.15714	532.49565	628.38446	-82.26592	504.97465	615.45972	-23.44982	490.87961	755.24383	0.17223	461.73001	643.56175	-0.98426	581.78100	804.30734	-367.94204	632.82434	672.25709	-378.76266	476.40265	763.22505	-365.85735	527.94906	635.08885	-358.08589	581.96881	929.27530	-59.03502	395.56513	974.28095	-139.02102	592.74541	922.03563	-298.62326	393.79980	968.07335	-236.43394	462.15094	1435.49420	-233.29844	536.15194	1411.47395	-71.89070	506.97514	1358.50956	-393.01754	568.08907	1333.77850	-211.86758	567.64090	1325.64833	-250.04891	565.17888	1186.34945	35.31803	505.91228	1090.84868	31.52193	549.85953	1100.81933	74.44656	637.85301	984.92079	78.91525	692.36161	897.48295	56.16699	666.12207	886.39267	93.40334	451.65845	1123.85192	-448.17346	395.35742	1036.75087	-388.67709	406.92904	1034.09333	-446.03962	449.85090	894.52833	-464.88779	478.45387	789.58914	-444.85032	439.05105	783.36775	-460.70769	506.34423	851.31979	-95.46544	499.60618	855.83537	-285.96019	511.83451	866.35090	-87.00244	508.97231	856.28187	-245.02474	
63	0.62000000	378.29008	481.76221	-40.97724	396.18351	423.19918	-49.87460	191.80241	113.90699	-97.41243	128.46113	90.80221	-147.14651	321.19970	31.99934	-58.53361	351.62785	50.48039	-116.40436	674.14575	491.14845	-356.49342	727.40915	423.18528	-368.32113	781.35617	103.26556	-329.54529	737.94531	50.54867	-276.13200	916.16658	85.43074	-354.00584	948.32898	124.33229	-303.33025	349.49835	319.46528	-67.97922	326.07038	444.92765	-16.82493	279.95683	339.36048	-23.18592	638.80090	405.90952	-378.58516	674.32457	288.73060	-374.75044	575.39752	734.78277	-85.71023	542.22489	625.54136	-81.79184	514.47392	612.96038	-23.18080	501.34537	752.90358	0.10948	471.15291	641.31989	-1.04735	596.12590	803.44090	-367.65744	647.30777	671.39777	-377.81952	490.71860	762.12334	-366.97928	542.49076	634.03457	-358.75343	594.01568	927.06231	-58.53062	408.32671	972.25588	-139.44456	606.34862	919.96643	-298.22475	407.07628	966.43076	-236.79957	472.76460	1432.72666	-239.02155	547.41238	1411.23890	-77.44575	517.00076	1353.68141	-397.77691	579.40718	1331.82475	-216.65723	578.65044	1323.13418	-254.74220	575.52813	1186.89917	32.16192	515.29078	1091.87118	29.59817	559.74988	1101.81761	72.14694	647.10008	985.38800	76.89253	700.89598	897.46145	54.39168	674.92769	886.76872	91.94367	462.13984	1118.42577	-450.33416	406.64201	1031.65549	-389.72204	417.60047	1028.79370	-446.96920	460.52678	888.93770	-465.48970	489.32099	784.10464	-445.14748	449.49073	778.09460	-460.49819	518.62821	849.18713	-95.48197	512.94872	853.97144	-286.00929	524.19807	863.78433	-87.11678	522.16804	854.32270	-245.30647	
